<svg fill="white" width="104" height="100" viewBox="0 0 104 100" xmlns="http://www.w3.org/2000/svg" class="cardano">
<path fill-rule="evenodd" clip-rule="evenodd" d="M55.2669 3.03302C55.2669 4.70811 53.909 6.06603 52.2339 6.06603C50.5588 6.06603 49.2009 4.70811 49.2009 3.03302C49.2009 1.35793 50.5588 0 52.2339 0C53.909 0 55.2669 1.35793 55.2669 3.03302ZM79.1283 7.40333C79.1283 8.70618 78.0721 9.76234 76.7693 9.76234C75.4664 9.76234 74.4102 8.70618 74.4102 7.40333C74.4102 6.10048 75.4664 5.04432 76.7693 5.04432C78.0721 5.04432 79.1283 6.10048 79.1283 7.40333ZM73.6011 18.3893C73.6011 20.2505 72.0923 21.7593 70.231 21.7593C68.3698 21.7593 66.861 20.2505 66.861 18.3893C66.861 16.5281 68.3698 15.0193 70.231 15.0193C72.0923 15.0193 73.6011 16.5281 73.6011 18.3893ZM51.899 25.803C54.1325 25.803 55.9431 23.9925 55.9431 21.759C55.9431 19.5256 54.1325 17.715 51.899 17.715C49.6656 17.715 47.855 19.5256 47.855 21.759C47.855 23.9925 49.6656 25.803 51.899 25.803ZM43.8102 42.7879C47.5326 42.7879 50.5502 39.7702 50.5502 36.0478C50.5502 32.3254 47.5326 29.3078 43.8102 29.3078C40.0878 29.3078 37.0701 32.3254 37.0701 36.0478C37.0701 39.7702 40.0878 42.7879 43.8102 42.7879ZM60.1205 42.7879C63.8429 42.7879 66.8605 39.7702 66.8605 36.0478C66.8605 32.3254 63.8429 29.3078 60.1205 29.3078C56.398 29.3078 53.3804 32.3254 53.3804 36.0478C53.3804 39.7702 56.398 42.7879 60.1205 42.7879ZM75.0836 50.2023C75.0836 53.9248 72.066 56.9424 68.3436 56.9424C64.6212 56.9424 61.6036 53.9248 61.6036 50.2023C61.6036 46.4799 64.6212 43.4623 68.3436 43.4623C72.066 43.4623 75.0836 46.4799 75.0836 50.2023ZM60.1205 71.0969C63.8429 71.0969 66.8605 68.0793 66.8605 64.3569C66.8605 60.6345 63.8429 57.6168 60.1205 57.6168C56.398 57.6168 53.3804 60.6345 53.3804 64.3569C53.3804 68.0793 56.398 71.0969 60.1205 71.0969ZM50.5502 64.3569C50.5502 68.0793 47.5326 71.0969 43.8102 71.0969C40.0878 71.0969 37.0701 68.0793 37.0701 64.3569C37.0701 60.6345 40.0878 57.6168 43.8102 57.6168C47.5326 57.6168 50.5502 60.6345 50.5502 64.3569ZM35.587 56.9424C39.3094 56.9424 42.3271 53.9248 42.3271 50.2023C42.3271 46.4799 39.3094 43.4623 35.587 43.4623C31.8646 43.4623 28.847 46.4799 28.847 50.2023C28.847 53.9248 31.8646 56.9424 35.587 56.9424ZM31.8136 36.0475C31.8136 38.281 30.003 40.0915 27.7696 40.0915C25.5361 40.0915 23.7255 38.281 23.7255 36.0475C23.7255 33.8141 25.5361 32.0035 27.7696 32.0035C30.003 32.0035 31.8136 33.8141 31.8136 36.0475ZM80.2065 36.0475C80.2065 38.281 78.396 40.0915 76.1625 40.0915C73.9291 40.0915 72.1185 38.281 72.1185 36.0475C72.1185 33.8141 73.9291 32.0035 76.1625 32.0035C78.396 32.0035 80.2065 33.8141 80.2065 36.0475ZM76.1625 68.4006C78.396 68.4006 80.2065 66.59 80.2065 64.3566C80.2065 62.1231 78.396 60.3126 76.1625 60.3126C73.9291 60.3126 72.1185 62.1231 72.1185 64.3566C72.1185 66.59 73.9291 68.4006 76.1625 68.4006ZM55.9431 78.2411C55.9431 80.4746 54.1325 82.2851 51.899 82.2851C49.6656 82.2851 47.855 80.4746 47.855 78.2411C47.855 76.0077 49.6656 74.1971 51.899 74.1971C54.1325 74.1971 55.9431 76.0077 55.9431 78.2411ZM27.7696 68.4006C30.003 68.4006 31.8136 66.59 31.8136 64.3566C31.8136 62.1231 30.003 60.3126 27.7696 60.3126C25.5361 60.3126 23.7255 62.1231 23.7255 64.3566C23.7255 66.59 25.5361 68.4006 27.7696 68.4006ZM18.8708 50.202C18.8708 52.0632 17.3619 53.572 15.5007 53.572C13.6395 53.572 12.1307 52.0632 12.1307 50.202C12.1307 48.3408 13.6395 46.832 15.5007 46.832C17.3619 46.832 18.8708 48.3408 18.8708 50.202ZM88.4292 53.572C90.2904 53.572 91.7992 52.0632 91.7992 50.202C91.7992 48.3408 90.2904 46.832 88.4292 46.832C86.5679 46.832 85.0591 48.3408 85.0591 50.202C85.0591 52.0632 86.5679 53.572 88.4292 53.572ZM33.7009 21.7593C35.5621 21.7593 37.0709 20.2505 37.0709 18.3893C37.0709 16.5281 35.5621 15.0193 33.7009 15.0193C31.8397 15.0193 30.3308 16.5281 30.3308 18.3893C30.3308 20.2505 31.8397 21.7593 33.7009 21.7593ZM37.0709 81.6107C37.0709 83.4719 35.5621 84.9807 33.7009 84.9807C31.8397 84.9807 30.3308 83.4719 30.3308 81.6107C30.3308 79.7495 31.8397 78.2407 33.7009 78.2407C35.5621 78.2407 37.0709 79.7495 37.0709 81.6107ZM70.231 84.9807C72.0923 84.9807 73.6011 83.4719 73.6011 81.6107C73.6011 79.7495 72.0923 78.2407 70.231 78.2407C68.3698 78.2407 66.861 79.7495 66.861 81.6107C66.861 83.4719 68.3698 84.9807 70.231 84.9807ZM79.1283 93.0024C79.1283 94.3053 78.0721 95.3614 76.7693 95.3614C75.4664 95.3614 74.4102 94.3053 74.4102 93.0024C74.4102 91.6996 75.4664 90.6434 76.7693 90.6434C78.0721 90.6434 79.1283 91.6996 79.1283 93.0024ZM101.573 52.6279C102.876 52.6279 103.932 51.5717 103.932 50.2688C103.932 48.966 102.876 47.9098 101.573 47.9098C100.27 47.9098 99.2137 48.966 99.2137 50.2688C99.2137 51.5717 100.27 52.6279 101.573 52.6279ZM27.5664 9.76234C28.8692 9.76234 29.9254 8.70618 29.9254 7.40333C29.9254 6.10048 28.8692 5.04432 27.5664 5.04432C26.2635 5.04432 25.2074 6.10048 25.2074 7.40333C25.2074 8.70618 26.2635 9.76234 27.5664 9.76234ZM4.71803 50.2688C4.71803 51.5717 3.66186 52.6279 2.35901 52.6279C1.05617 52.6279 0 51.5717 0 50.2688C0 48.966 1.05617 47.9098 2.35901 47.9098C3.66186 47.9098 4.71803 48.966 4.71803 50.2688ZM27.5664 95.3614C28.8692 95.3614 29.9254 94.3053 29.9254 93.0024C29.9254 91.6996 28.8692 90.6434 27.5664 90.6434C26.2635 90.6434 25.2074 91.6996 25.2074 93.0024C25.2074 94.3053 26.2635 95.3614 27.5664 95.3614ZM16.311 72.7806C16.311 74.4557 14.953 75.8136 13.278 75.8136C11.6029 75.8136 10.2449 74.4557 10.2449 72.7806C10.2449 71.1055 11.6029 69.7476 13.278 69.7476C14.953 69.7476 16.311 71.1055 16.311 72.7806ZM13.278 30.6563C14.953 30.6563 16.311 29.2984 16.311 27.6233C16.311 25.9482 14.953 24.5903 13.278 24.5903C11.6029 24.5903 10.2449 25.9482 10.2449 27.6233C10.2449 29.2984 11.6029 30.6563 13.278 30.6563ZM90.6539 30.6563C92.329 30.6563 93.6869 29.2984 93.6869 27.6233C93.6869 25.9482 92.329 24.5903 90.6539 24.5903C88.9788 24.5903 87.6209 25.9482 87.6209 27.6233C87.6209 29.2984 88.9788 30.6563 90.6539 30.6563ZM93.6869 72.7806C93.6869 74.4557 92.329 75.8136 90.6539 75.8136C88.9788 75.8136 87.6209 74.4557 87.6209 72.7806C87.6209 71.1055 88.9788 69.7476 90.6539 69.7476C92.329 69.7476 93.6869 71.1055 93.6869 72.7806ZM52.0999 99.9999C53.775 99.9999 55.1329 98.642 55.1329 96.9669C55.1329 95.2918 53.775 93.9339 52.0999 93.9339C50.4248 93.9339 49.0669 95.2918 49.0669 96.9669C49.0669 98.642 50.4248 99.9999 52.0999 99.9999Z"></path>
</svg>