<svg xmlns="http://www.w3.org/2000/svg" viewBox="0 0 206.38 42" fill="#fff"><path d="M12.3 20.84a3.11 3.11 0 0 0 .76 2.22 3 3 0 0 0 2.08 1h.17a3 3 0 0 0 2.8-1.83 3.09 3.09 0 0 0 .2-1.75 3 3 0 0 0-.78-1.56 3 3 0 0 0-3.23-.78 3.05 3.05 0 0 0-2 2.7zM1 20.07a1 1 0 0 0-.55.13 1 1 0 0 0-.23 1.51 1 1 0 0 0 .48.3 1 1 0 0 0 .57 0 1.11 1.11 0 0 0 .46-.34 1.07 1.07 0 0 0 .27-.56 1 1 0 0 0-.05-.38 1 1 0 0 0-.19-.34 1.19 1.19 0 0 0-.31-.23.92.92 0 0 0-.45-.09zM12.11 3.08a1 1 0 0 0 .4-.4.91.91 0 0 0 .12-.56.94.94 0 0 0-.2-.53 1 1 0 0 0-.43-.33.89.89 0 0 0-.56 0 1 1 0 0 0-.48.3.94.94 0 0 0-.23.53 1 1 0 0 0 .1.56.87.87 0 0 0 .23.31.88.88 0 0 0 .34.19 1 1 0 0 0 .38.05 1 1 0 0 0 .33-.12zm3.06 5.42a1.53 1.53 0 0 0 .64-.62 1.6 1.6 0 0 0 .19-.86 1.5 1.5 0 0 0-.32-.83 1.45 1.45 0 0 0-.68-.51 1.55 1.55 0 0 0-.88 0 1.5 1.5 0 0 0-.74.47 1.52 1.52 0 0 0-.35.81 1.49 1.49 0 0 0 .15.88 1.38 1.38 0 0 0 .36.47 1.44 1.44 0 0 0 .51.29 1.48 1.48 0 0 0 .59.08 1.57 1.57 0 0 0 .53-.18zM4.86 12.22a1.2 1.2 0 0 0 .69.21 1.24 1.24 0 0 0 1.14-.79 1.3 1.3 0 0 0 .07-.73 1.27 1.27 0 0 0-.35-.59 1.29 1.29 0 0 0-.64-.34 1.19 1.19 0 0 0-.72.08 1.26 1.26 0 0 0-.19 2.21zm1.83 7.29a1.44 1.44 0 0 0-.85.21 1.55 1.55 0 0 0-.59.65 1.52 1.52 0 0 0 .23 1.68 1.44 1.44 0 0 0 .75.46 1.47 1.47 0 0 0 .88 0 1.51 1.51 0 0 0 .7-.52 1.53 1.53 0 0 0 .3-.84 1.52 1.52 0 0 0-1.42-1.61z"/><path d="M5 29.78a1.28 1.28 0 0 0-.5.54 1.26 1.26 0 0 0 .1 1.39 1.24 1.24 0 0 0 1.31.44 1.24 1.24 0 0 0 .61-.39 1.24 1.24 0 0 0 .17-1.44 1.14 1.14 0 0 0-.3-.39 1.24 1.24 0 0 0-.39-.22 1.24 1.24 0 0 0-1 .07zm5.89-13.46a1.67 1.67 0 0 0 1 .29 1.73 1.73 0 0 0 1-.31 1.78 1.78 0 0 0 .65-.81 1.84 1.84 0 0 0 .09-1 1.8 1.8 0 0 0-.49-.92 1.76 1.76 0 0 0-2.73.3 2 2 0 0 0-.27.65 1.83 1.83 0 0 0 0 .7 2 2 0 0 0 .27.65 1.8 1.8 0 0 0 .48.45zM29.5 8.38a1.47 1.47 0 0 0 .84.24 1.49 1.49 0 0 0 .84-.3 1.51 1.51 0 0 0 .54-.7 1.47 1.47 0 0 0 .08-.88 1.51 1.51 0 0 0-1.2-1.19 1.45 1.45 0 0 0-.87.1 1.48 1.48 0 0 0-.67.57 1.39 1.39 0 0 0-.22.55 1.52 1.52 0 0 0 0 .6 1.42 1.42 0 0 0 .24.55 1.53 1.53 0 0 0 .42.46zm3.09-5.4a1 1 0 0 0 .55.16 1 1 0 0 0 .54-.17 1.06 1.06 0 0 0 .32-.45 1 1 0 0 0 .05-.57 1 1 0 0 0-.28-.51.93.93 0 0 0-.5-.26.9.9 0 0 0-.56.06 1 1 0 0 0-.44.37 1 1 0 0 0-.14.74 1.06 1.06 0 0 0 .46.63zm-2.85 14.95a3.07 3.07 0 0 0-1.17.16 3.07 3.07 0 0 0-2 2.72 3.08 3.08 0 0 0 .77 2.21 3 3 0 0 0 2.08 1h.17a3 3 0 0 0 1.65-.49 3.1 3.1 0 0 0 1.34-3 3.16 3.16 0 0 0-.73-1.57 3.27 3.27 0 0 0-.94-.72 3 3 0 0 0-1.17-.31zm-13.57-1.79a3 3 0 0 0 2.7 1.68 3 3 0 0 0 2.57-1.5 3.05 3.05 0 0 0 .45-1.47 3.12 3.12 0 0 0-1.44-2.74 3 3 0 0 0-1.59-.44 3 3 0 0 0-1.47.38 3.22 3.22 0 0 0-1.1 1.07 3.11 3.11 0 0 0-.12 3zm23.69-3.92a1.28 1.28 0 0 0 .52-.51 1.24 1.24 0 0 0 .16-.71 1.26 1.26 0 0 0-.26-.68A1.24 1.24 0 0 0 39 9.88a1.24 1.24 0 0 0-.61.39 1.24 1.24 0 0 0-.17 1.39 1.24 1.24 0 0 0 1.67.56zm-7.66.97a1.74 1.74 0 0 0-.75.72 1.82 1.82 0 0 0 .14 2 1.77 1.77 0 0 0 2.75.06 1.86 1.86 0 0 0 .42-.95 1.84 1.84 0 0 0-.18-1 1.64 1.64 0 0 0-.43-.55 1.58 1.58 0 0 0-.6-.35 2 2 0 0 0-.69-.09 1.86 1.86 0 0 0-.66.16zM22.33 2.52a1.28 1.28 0 0 0 1.19-.71 1.41 1.41 0 0 0 .11-.73 1.3 1.3 0 0 0-.31-.66 1.2 1.2 0 0 0-.61-.38 1.26 1.26 0 0 0-.72 0 1.21 1.21 0 0 0-.59.43 1.32 1.32 0 0 0-.25.69 1.32 1.32 0 0 0 .32.91 1.25 1.25 0 0 0 .86.45zm-.02 7.92a1.76 1.76 0 0 0 1-.25 1.71 1.71 0 0 0 .7-.76 1.86 1.86 0 0 0 .16-1 1.81 1.81 0 0 0-.43-.94 1.78 1.78 0 0 0-.88-.55 1.81 1.81 0 0 0-1.86.62 1.82 1.82 0 0 0-.35 1 1.8 1.8 0 0 0 1.67 1.9zm-9.62 18.37a1.77 1.77 0 0 0 .74-.72 1.83 1.83 0 0 0 .23-1 1.9 1.9 0 0 0-.37-1 1.77 1.77 0 0 0-2.75-.06 1.86 1.86 0 0 0-.42.95 1.83 1.83 0 0 0 .18 1 1.76 1.76 0 0 0 1 .9 1.78 1.78 0 0 0 1.39-.07zm10.77-15.74a3 3 0 0 0-.46 1.92 3.06 3.06 0 0 0 .78 1.82 3 3 0 0 0 3.66.63 3.09 3.09 0 0 0 1.33-1.46 3.08 3.08 0 0 0-.9-3.65 3 3 0 0 0-3.3-.28 3 3 0 0 0-1.11 1.02zm5.25 12.79a3 3 0 0 0-4.11-1.32 2.92 2.92 0 0 0-1.16 1.1 3.17 3.17 0 0 0-.44 1.54 3.11 3.11 0 0 0 .39 1.55 3 3 0 0 0 1.11 1.15 2.94 2.94 0 0 0 1.5.44 3.07 3.07 0 0 0 2.69-4.44zm5.29-.21a1.72 1.72 0 0 0-1-.3 1.82 1.82 0 0 0-1 .32 1.78 1.78 0 0 0-.65.81 1.84 1.84 0 0 0-.09 1 1.76 1.76 0 0 0 1.41 1.4 1.7 1.7 0 0 0 1-.11 1.77 1.77 0 0 0 .79-.67 1.83 1.83 0 0 0 .26-1.35 1.79 1.79 0 0 0-.72-1.1zm5.78-4.6a1.53 1.53 0 0 0-.21-.86 1.48 1.48 0 0 0-.64-.6 1.53 1.53 0 0 0-.87-.14 1.43 1.43 0 0 0-.79.38 1.51 1.51 0 0 0-.46.75 1.57 1.57 0 0 0 .55 1.61 1.55 1.55 0 0 0 .83.3 1.52 1.52 0 0 0 1.09-.38 1.56 1.56 0 0 0 .5-1.06zM44 19.96a1 1 0 0 0-.94.56 1.13 1.13 0 0 0-.09.57 1 1 0 0 0 .24.52 1 1 0 0 0 1 .28 1 1 0 0 0 .66-.88 1.06 1.06 0 0 0-.25-.72 1 1 0 0 0-.62-.33zm-4 9.82a1.2 1.2 0 0 0-.69-.21 1.28 1.28 0 0 0-.69.22 1.26 1.26 0 0 0-.45.57 1.3 1.3 0 0 0-.07.73 1.23 1.23 0 0 0 .35.64 1.25 1.25 0 0 0 .64.34 1.19 1.19 0 0 0 .72-.08 1.25 1.25 0 0 0 .55-.47 1.18 1.18 0 0 0 .18-.45 1.35 1.35 0 0 0 0-.49 1.25 1.25 0 0 0-.19-.46 1.26 1.26 0 0 0-.35-.34zm-27.71 9.24a1 1 0 0 0-.55-.16 1 1 0 0 0-.54.17 1.06 1.06 0 0 0-.36.45 1 1 0 0 0 .22 1.07.94.94 0 0 0 .51.27.9.9 0 0 0 .56-.06 1 1 0 0 0 .44-.37.93.93 0 0 0 .14-.36 1.21 1.21 0 0 0 0-.38 1 1 0 0 0-.42-.63zm20.48-.1a1 1 0 0 0-.53 1 .94.94 0 0 0 .2.53.92.92 0 0 0 .47.33.94.94 0 0 0 1.23-.82.91.91 0 0 0-.1-.56.87.87 0 0 0-.23-.31 1.09 1.09 0 0 0-.33-.19 1 1 0 0 0-.38 0 1 1 0 0 0-.33.02zm-11.35-9.99a3.06 3.06 0 0 0-2-4.7 3 3 0 0 0-3.26 1.79 3.13 3.13 0 0 0-.17 2A3.05 3.05 0 0 0 17 29.66a3 3 0 0 0 3.3.29 3.23 3.23 0 0 0 1.12-1.02zm-6.04 4.7a1.41 1.41 0 0 0-.84-.25 1.49 1.49 0 0 0-.84.26 1.54 1.54 0 0 0-.54.69 1.5 1.5 0 0 0-.08.89 1.55 1.55 0 0 0 1.19 1.19 1.53 1.53 0 0 0 1.55-.67 1.55 1.55 0 0 0 .18-1.15 1.5 1.5 0 0 0-.62-.96zm7.05 5.85a1.28 1.28 0 0 0-.71.18 1.17 1.17 0 0 0-.48.53 1.32 1.32 0 0 0-.12.73 1.3 1.3 0 0 0 .31.66 1.22 1.22 0 0 0 1.33.35 1.21 1.21 0 0 0 .59-.43 1.32 1.32 0 0 0 .25-.69 1.3 1.3 0 0 0-.07-.48 1.24 1.24 0 0 0-.25-.43 1.33 1.33 0 0 0-.38-.29 1.14 1.14 0 0 0-.47-.13zm.01-7.92a1.75 1.75 0 0 0-1 .24 1.81 1.81 0 0 0-.44 2.75 1.78 1.78 0 0 0 .88.55 1.8 1.8 0 0 0 1.78-2.94 1.75 1.75 0 0 0-1.22-.6zm7.27 1.94a1.53 1.53 0 0 0-.64.62 1.61 1.61 0 0 0-.19.87 1.59 1.59 0 0 0 .32.82 1.52 1.52 0 0 0 .72.51 1.47 1.47 0 0 0 .88 0 1.52 1.52 0 0 0 .74-.48 1.6 1.6 0 0 0 .35-.81 1.58 1.58 0 0 0-.16-.88 1.51 1.51 0 0 0-.36-.47 1.44 1.44 0 0 0-.51-.29 1.68 1.68 0 0 0-.59-.07 1.51 1.51 0 0 0-.56.18zm33.34-19.73c2.92 0 5 1.63 5 4.65h3.83c0-5.3-3.86-7.86-8.86-7.86-6.15 0-9.72 3.38-9.72 10.52 0 7.32 3.57 10.52 9.72 10.52 5.06 0 8.86-2.48 8.86-7.79h-3.71c0 3-2 4.59-5.12 4.59-4.07 0-5.95-2.28-5.95-7v-.59c.01-4.67 1.9-7.04 5.95-7.04zM82 10.92l-7.83 20.33H78l1.6-4.41h9.19l1.65 4.41h4L86.7 10.92zm-1.19 12.71l2-5.57 1.29-3.88h.15l1.28 3.88 2 5.57zm34.6-6.54c0-3.76-2.14-6.17-6.56-6.17H98.26v20.33H102V23.4h6.23l3.77 7.85h4.1l-4.29-8.44c2.4-.95 3.6-2.96 3.6-5.72zm-6.85 3.11H102v-6h6.55c2 0 3.07 1.1 3.07 2.94a2.84 2.84 0 0 1-3.06 3.06zm19.99-9.28h-8v20.33h8c6.06 0 9.74-3.2 9.74-10.16s-3.69-10.17-9.74-10.17zm5.91 10.47c0 4.44-2.11 6.63-5.91 6.63h-4.27V14.15h4.27c3.79 0 5.91 2.2 5.91 6.64zm13.64-10.47l-7.82 20.33h3.86l1.61-4.41h9.19l1.64 4.41h4l-7.78-20.33zm-1.17 12.71l2-5.57 1.29-3.88h.15l1.29 3.88 2 5.57zm30.81-.61l.06 1.6-.15.05c-.08-.11-.67-1.15-1-1.62l-8.71-12.13h-3.57v20.33H168V19.07l-.06-1.63.14-.08c.09.11.53 1 1 1.66l8.77 12.23h3.52V10.92h-3.6v12.1zm18.52-12.45c-6.3 0-10.1 3.38-10.1 10.52s3.8 10.52 10.1 10.52 10.12-3.38 10.12-10.52-3.83-10.52-10.12-10.52zm6.29 10.85c0 4.65-2.2 7-6.29 7s-6.27-2.34-6.27-7v-.63c0-4.65 2.23-7 6.27-7s6.29 2.37 6.29 7z"/></svg>