<svg width="190" height="190" viewBox="0 0 190 190" fill="none" xmlns="http://www.w3.org/2000/svg"><r0ect width="190" height="190" fill="white"/><path d="M56.011 59.385L99.4732 15.3017C102.444 12.0483 103.505 12.3652 104.518 16.0889L104.906 47.577C104.798 52.4906 104.441 54.6096 102.966 56.6298L76.5779 83.7883C73.1275 88.055 73.601 89.7581 73.4735 91.6603C73.3459 93.5625 76.8309 99.1087 82.7868 99.5324C82.7868 99.5324 98.9373 99.5357 100.637 99.5324C102.337 99.529 103.528 102.267 100.637 105.043L64.1601 141.648C59.6458 145.9 57.0921 145.888 52.5185 144.403C45.4989 140.468 45.3735 136.836 45.1547 130.502L45.1454 130.233V90.0859C44.9023 77.2876 46.732 70.4678 56.011 59.385Z" fill="#FF6100"/><path d="M134.71 131.59L89.9312 175.673C86.8701 178.927 85.7772 178.61 84.7336 174.886L84.3338 143.398C84.4445 138.485 84.8129 136.365 86.3328 13.345L113.52 107.187C117.075 102.92 116.587 101.217 116.719 99.3148C116.85 97.4126 113.26 91.8664 107.123 91.4427C107.123 91.4427 90.4833 91.4394 88.7317 91.4427C86.9802 91.4461 85.753 88.7077 88.7317 85.9323L126.314 49.3273C130.965 45.075 133.597 45.0868 138.309 46.5721C145.541 50.5071 145.67 54.1395 145.896 60.4734L145.905 60.7418L145.905 100.889C146.156 113.688 144.271 120.507 134.71 131.59Z" fill="#FF6100"/></svg>
